<svg width="180" height="53" viewBox="0 0 180 53" fill="none" xmlns="http://www.w3.org/2000/svg">
<path d="M25.892 20.75V17.6375C25.892 16.2888 26.1907 15.5625 28.282 15.5625H30.8712V10.375H26.8878C21.9086 10.375 19.917 13.7987 19.917 17.6375V20.75H15.9336V25.9375H19.917V41.5H25.892V25.9375H30.2737L30.8712 20.75H25.892Z" fill="#232323"/>
<path fill-rule="evenodd" clip-rule="evenodd" d="M89.6256 13.4863C86.1103 13.4863 85.6691 13.5019 84.2879 13.5673C82.9097 13.6326 81.9686 13.8609 81.145 14.1939C80.2814 14.5328 79.499 15.0639 78.8526 15.7502C78.1938 16.4239 77.684 17.2393 77.3589 18.1395C77.0392 18.9965 76.8211 19.9769 76.7574 21.4128C76.6946 22.8518 76.6797 23.3115 76.6797 26.9738C76.6797 30.6362 76.6946 31.0958 76.7574 32.5348C76.8201 33.9707 77.0392 34.9512 77.3589 35.8081C77.6905 36.6952 78.1326 37.4474 78.8526 38.1975C79.499 38.8838 80.2814 39.4149 81.145 39.7538C81.9686 40.0858 82.9097 40.314 84.2879 40.3804C85.6691 40.4458 86.1103 40.4613 89.6256 40.4613C93.1409 40.4613 93.5821 40.4458 94.9633 40.3804C96.3416 40.315 97.2826 40.0868 98.1052 39.7538C98.9692 39.415 99.7519 38.8839 100.399 38.1975C101.057 37.5237 101.567 36.7083 101.892 35.8081C102.211 34.9512 102.43 33.9707 102.494 32.5348C102.557 31.0958 102.572 30.6362 102.572 26.9738C102.572 23.3115 102.557 22.8518 102.494 21.4128C102.431 19.9769 102.212 18.9965 101.891 18.1395C101.567 17.2394 101.057 16.424 100.399 15.7502C99.7519 15.0637 98.9692 14.5326 98.1052 14.1939C97.2826 13.8619 96.3416 13.6337 94.9633 13.5673C93.5821 13.5019 93.1409 13.4863 89.6256 13.4863ZM89.6256 15.9162C93.0822 15.9162 93.4915 15.9307 94.8568 15.995C96.1185 16.0552 96.8046 16.2751 97.2607 16.4598C97.8652 16.7047 98.2964 16.9962 98.7495 17.4683C99.2026 17.9403 99.4824 18.3896 99.7174 19.0193C99.8947 19.4945 100.106 20.2083 100.164 21.5238C100.225 22.9452 100.239 23.3727 100.239 26.9738C100.239 30.575 100.225 31.0014 100.164 32.4238C100.106 33.7394 99.8947 34.4532 99.7174 34.9283C99.5101 35.5142 99.1793 36.0442 98.7495 36.4794C98.3318 36.9272 97.8231 37.2718 97.2607 37.4879C96.8046 37.6725 96.1185 37.8925 94.8568 37.9527C93.4925 38.017 93.0822 38.0315 89.6256 38.0315C86.169 38.0315 85.7588 38.017 84.3945 37.9527C83.1317 37.8925 82.4466 37.6725 81.9905 37.4879C81.4281 37.2718 80.9194 36.9272 80.5017 36.4794C80.0719 36.0442 79.7412 35.5142 79.5338 34.9283C79.3565 34.4532 79.1454 33.7394 79.0876 32.4238C79.0259 31.0024 79.0119 30.575 79.0119 26.9738C79.0119 23.3727 79.0259 22.9463 79.0876 21.5238C79.1454 20.2083 79.3565 19.4945 79.5338 19.0193C79.7688 18.3896 80.0486 17.9403 80.5017 17.4683C80.9194 17.0204 81.4282 16.6759 81.9905 16.4598C82.4466 16.2751 83.1317 16.0552 84.3945 15.995C85.7588 15.9307 86.169 15.9162 89.6256 15.9162Z" fill="#232323"/>
<path fill-rule="evenodd" clip-rule="evenodd" d="M89.6271 19.7105C87.7783 19.7105 86.0053 20.4757 84.698 21.8377C83.3907 23.1997 82.6562 25.0469 82.6562 26.973C82.6562 28.8992 83.3907 30.7464 84.698 32.1084C86.0053 33.4704 87.7783 34.2355 89.6271 34.2355C91.4759 34.2355 93.249 33.4704 94.5563 32.1084C95.8636 30.7464 96.598 28.8992 96.598 26.973C96.598 25.0469 95.8636 23.1997 94.5563 21.8377C93.249 20.4757 91.4759 19.7105 89.6271 19.7105ZM89.6271 31.6418C88.4386 31.6418 87.2988 31.1499 86.4584 30.2744C85.618 29.3988 85.1458 28.2113 85.1458 26.973C85.1458 25.7348 85.618 24.5473 86.4584 23.6717C87.2988 22.7962 88.4386 22.3043 89.6271 22.3043C90.8156 22.3043 91.9555 22.7962 92.7959 23.6717C93.6363 24.5473 94.1084 25.7348 94.1084 26.973C94.1084 28.2113 93.6363 29.3988 92.7959 30.2744C91.9555 31.1499 90.8156 31.6418 89.6271 31.6418ZM98.2909 19.8143C98.2909 20.0323 98.2497 20.2482 98.1697 20.4496C98.0896 20.651 97.9722 20.8339 97.8243 20.9881C97.6763 21.1422 97.5006 21.2645 97.3073 21.3479C97.114 21.4314 96.9068 21.4743 96.6976 21.4743C96.4883 21.4743 96.2812 21.4314 96.0878 21.3479C95.8945 21.2645 95.7189 21.1422 95.5709 20.9881C95.423 20.8339 95.3056 20.651 95.2255 20.4496C95.1455 20.2482 95.1042 20.0323 95.1042 19.8143C95.1042 19.374 95.2721 18.9518 95.5709 18.6405C95.8697 18.3292 96.275 18.1543 96.6976 18.1543C97.1202 18.1543 97.5254 18.3292 97.8243 18.6405C98.1231 18.9518 98.2909 19.374 98.2909 19.8143Z" fill="#232323"/>
<path d="M165.41 13.4863H143.302C142.207 13.4863 141.41 14.3163 141.41 15.4576V38.4901C141.41 39.5276 142.306 40.4613 143.302 40.4613H165.41C166.505 40.4613 167.302 39.6313 167.302 38.4901V15.4576C167.302 14.3163 166.406 13.4863 165.41 13.4863ZM149.377 36.3113H145.394V23.8613H149.377V36.3113ZM147.385 22.2013C146.091 22.2013 144.995 21.0601 144.995 19.7113C144.995 18.3626 146.091 17.2213 147.385 17.2213C148.68 17.2213 149.775 18.3626 149.775 19.7113C149.775 21.0601 148.68 22.2013 147.385 22.2013ZM163.319 36.3113H159.335V30.0863C159.335 28.4263 158.937 26.7663 157.344 26.7663C155.75 26.7663 155.352 28.4263 155.352 30.0863V36.3113H151.369V23.8613H155.352V25.3138H155.551C156.049 24.2763 157.344 23.4463 158.837 23.4463C162.522 23.4463 163.319 25.9363 163.319 29.0488V36.3113Z" fill="#232323"/>
</svg>
