<svg width="24" height="25" viewBox="0 0 24 25" fill="none" xmlns="http://www.w3.org/2000/svg">
<path d="M11.9506 0.664062L8.19627 3.11256H4.97971V5.18756L2.95815 6.52594C2.38056 6.88906 1.99219 7.54269 1.99219 8.30006V18.6751C1.99219 19.2254 2.20202 19.7532 2.57554 20.1423C2.94905 20.5315 3.45564 20.7501 3.98387 20.7501H19.9173C21.0227 20.7501 21.909 19.8267 21.909 18.6751V8.30006C21.909 7.54269 21.5206 6.88906 20.943 6.52594L18.9215 5.18756V3.11256H15.7049M6.97139 5.18756H16.9298V10.2506L11.9506 13.4876L6.97139 10.2506M7.96722 6.22506V7.78131H15.9339V6.22506M4.97971 7.65681V8.95369L3.98387 8.30006M18.9215 7.65681L19.9173 8.30006L18.9215 8.95369M7.96722 8.81881V10.3751H15.9339V8.81881H7.96722Z" fill="black"/>
</svg>
