<svg width="89" height="85" viewBox="0 0 89 85" fill="none" xmlns="http://www.w3.org/2000/svg">
<ellipse cx="44.614" cy="42.5149" rx="43.9343" ry="42.382" fill="#40AE49"/>
<path d="M56.2815 45.6425V50.3945H37.9455V45.6425H44.7615V28.8905C44.4735 29.2745 44.0255 29.6745 43.4175 30.0905C42.8095 30.5065 42.1215 30.9065 41.3535 31.2905C40.6175 31.6425 39.8655 31.9305 39.0975 32.1545C38.3295 32.3785 37.6255 32.4905 36.9855 32.4905V27.5465C37.6255 27.5465 38.3615 27.3545 39.1935 26.9705C40.0255 26.5865 40.8415 26.1385 41.6415 25.6265C42.4735 25.0825 43.1775 24.5705 43.7535 24.0905C44.3295 23.5785 44.6655 23.2105 44.7615 22.9865H50.1855V45.6425H56.2815Z" fill="white"/>
</svg>
