<svg width="91" height="86" viewBox="0 0 91 86" fill="none" xmlns="http://www.w3.org/2000/svg">
<ellipse cx="45.3987" cy="42.6827" rx="45.3987" ry="42.6827" fill="#40AE49"/>
<path d="M31.7088 55.0215C31.7088 53.6775 31.8208 52.4455 32.0448 51.3255C32.2688 50.1735 32.6528 49.0855 33.1968 48.0615C33.7728 47.0375 34.5568 46.0775 35.5488 45.1815C36.5728 44.2535 37.8688 43.3735 39.4368 42.5415C40.5568 41.9015 41.6128 41.3415 42.6048 40.8615C43.5968 40.3495 44.4768 39.8535 45.2448 39.3735C46.0128 38.8615 46.6048 38.3175 47.0208 37.7415C47.4688 37.1655 47.6928 36.5095 47.6928 35.7735C47.6928 35.0695 47.5008 34.4135 47.1168 33.8055C46.7328 33.1975 46.1568 32.7175 45.3888 32.3655C44.6208 31.9815 43.6928 31.7895 42.6048 31.7895C41.7408 31.7895 40.9408 31.9015 40.2048 32.1255C39.5008 32.3495 38.8448 32.6535 38.2368 33.0375C37.6608 33.3895 37.1328 33.7895 36.6528 34.2375C36.1728 34.6535 35.7568 35.0695 35.4048 35.4855L32.0928 31.6935C32.4128 31.3095 32.9088 30.8775 33.5808 30.3975C34.2848 29.8855 35.1168 29.3895 36.0768 28.9095C37.0688 28.3975 38.1888 27.9815 39.4368 27.6615C40.6848 27.3095 42.0448 27.1335 43.5168 27.1335C45.5968 27.1335 47.3728 27.4855 48.8448 28.1895C50.3168 28.8615 51.4368 29.8055 52.2048 31.0215C53.0048 32.2055 53.4048 33.5495 53.4048 35.0535C53.4048 36.2375 53.1648 37.2775 52.6848 38.1735C52.2368 39.0695 51.6448 39.8695 50.9088 40.5735C50.1728 41.2455 49.3888 41.8375 48.5568 42.3495C47.7568 42.8295 47.0048 43.2615 46.3008 43.6455C45.0528 44.2535 43.9648 44.8135 43.0368 45.3255C42.1408 45.8375 41.3728 46.3495 40.7328 46.8615C40.0928 47.3415 39.5648 47.8535 39.1488 48.3975C38.7328 48.9095 38.3808 49.5335 38.0928 50.2695H53.9328V55.0215H31.7088Z" fill="white"/>
</svg>
