<svg width="93" height="94" viewBox="0 0 93 94" fill="none" xmlns="http://www.w3.org/2000/svg">
<ellipse cx="46.4325" cy="46.5616" rx="45.5848" ry="46.5616" fill="#40AE49"/>
<path d="M49.3434 45.672C50.6874 45.896 51.8554 46.408 52.8474 47.208C53.8714 47.976 54.6554 48.968 55.1994 50.184C55.7434 51.368 56.0154 52.712 56.0154 54.216C56.0154 56.2 55.5194 57.928 54.5274 59.4C53.5674 60.872 52.1914 62.008 50.3994 62.808C48.6074 63.64 46.4954 64.056 44.0634 64.056C41.6314 64.056 39.4874 63.624 37.6314 62.76C35.7754 61.928 34.2874 60.712 33.1674 59.112L36.3834 55.464C37.1514 56.616 38.1434 57.528 39.3594 58.2C40.5754 58.904 42.1114 59.256 43.9674 59.256C46.0474 59.256 47.6634 58.808 48.8154 57.912C49.9674 57.016 50.5434 55.672 50.5434 53.88C50.5434 52.024 49.9034 50.568 48.6234 49.512C47.3754 48.456 45.4874 47.928 42.9594 47.928H41.6634V43.8H43.1034C45.2474 43.8 46.8954 43.304 48.0474 42.312C49.1994 41.288 49.7754 40.008 49.7754 38.472C49.7754 37.448 49.5354 36.616 49.0554 35.976C48.6074 35.304 47.9674 34.808 47.1354 34.488C46.3034 34.168 45.3434 34.008 44.2554 34.008C42.6234 34.008 41.1834 34.36 39.9354 35.064C38.6874 35.768 37.6954 36.776 36.9594 38.088L33.6474 34.488C34.2874 33.464 35.1674 32.568 36.2874 31.8C37.4074 31.032 38.6874 30.44 40.1274 30.024C41.5994 29.576 43.1514 29.352 44.7834 29.352C46.8954 29.352 48.7514 29.704 50.3514 30.408C51.9514 31.112 53.1834 32.104 54.0474 33.384C54.9434 34.664 55.3914 36.168 55.3914 37.896C55.3914 39.144 55.1514 40.328 54.6714 41.448C54.1914 42.536 53.4874 43.464 52.5594 44.232C51.6314 44.968 50.5594 45.448 49.3434 45.672Z" fill="white"/>
</svg>
