<svg width="546" height="101" viewBox="0 0 546 101" fill="none" xmlns="http://www.w3.org/2000/svg">
<path d="M45 0L55.1031 34.8946H87.7975L61.3472 56.4607L71.4503 91.3554L45 69.7893L18.5497 91.3554L28.6528 56.4607L2.20246 34.8946H34.8969L45 0Z" fill="#FFE600"/>
<path d="M159 0L169.103 34.8946H201.798L175.347 56.4607L185.45 91.3554L159 69.7893L132.55 91.3554L142.653 56.4607L116.202 34.8946H148.897L159 0Z" fill="#FFE600"/>
<path d="M273 0L283.103 34.8946H315.798L289.347 56.4607L299.45 91.3554L273 69.7893L246.55 91.3554L256.653 56.4607L230.202 34.8946H262.897L273 0Z" fill="#FFE600"/>
<path d="M387 0L397.103 34.8946H429.798L403.347 56.4607L413.45 91.3554L387 69.7893L360.55 91.3554L370.653 56.4607L344.202 34.8946H376.897L387 0Z" fill="#FFE600"/>
<path d="M501 0L511.103 34.8946H543.798L517.347 56.4607L527.45 91.3554L501 69.7893L474.55 91.3554L484.653 56.4607L458.202 34.8946H490.897L501 0Z" fill="#FFE600"/>
</svg>
