<svg width="35" height="32" viewBox="0 0 35 32" fill="none" xmlns="http://www.w3.org/2000/svg">
<path d="M0 6C0 4.89375 1.11719 4 2.5 4H32.5C33.8828 4 35 4.89375 35 6C35 7.10625 33.8828 8 32.5 8H2.5C1.11719 8 0 7.10625 0 6ZM0 16C0 14.8938 1.11719 14 2.5 14H32.5C33.8828 14 35 14.8938 35 16C35 17.1062 33.8828 18 32.5 18H2.5C1.11719 18 0 17.1062 0 16ZM35 26C35 27.1063 33.8828 28 32.5 28H2.5C1.11719 28 0 27.1063 0 26C0 24.8937 1.11719 24 2.5 24H32.5C33.8828 24 35 24.8937 35 26Z" fill="black"/>
</svg>
