<svg width="24" height="25" viewBox="0 0 24 25" fill="none" xmlns="http://www.w3.org/2000/svg">
<path d="M11.9506 1.5L8.19627 3.82938H4.97971V5.80344L2.95815 7.0767C2.38056 7.42216 1.99219 8.04399 1.99219 8.76452V18.6348C1.99219 19.1583 2.20202 19.6604 2.57554 20.0307C2.94905 20.4009 3.45564 20.6088 3.98387 20.6088H19.9173C21.0227 20.6088 21.909 19.7304 21.909 18.6348V8.76452C21.909 8.04399 21.5206 7.42216 20.943 7.0767L18.9215 5.80344V3.82938H15.7049M6.97138 5.80344H16.9298V10.6201L11.9506 13.6997L6.97138 10.6201M7.96722 6.79046V8.271H15.9339V6.79046M4.97971 8.15256V9.38634L3.98387 8.76452M18.9215 8.15256L19.9173 8.76452L18.9215 9.38634M7.96722 9.25803V10.7386H15.9339V9.25803H7.96722Z" fill="white"/>
</svg>
