<svg width="180" height="52" viewBox="0 0 180 52" fill="none" xmlns="http://www.w3.org/2000/svg">
<path d="M25.892 20.5675V17.6065C25.892 16.3233 26.1907 15.6324 28.282 15.6324H30.8712V10.6973H26.8878C21.9086 10.6973 19.917 13.9545 19.917 17.6065V20.5675H15.9336V25.5027H19.917V40.3081H25.892V25.5027H30.2737L30.8712 20.5675H25.892Z" fill="white"/>
<path fill-rule="evenodd" clip-rule="evenodd" d="M89.6256 13.6562C86.1103 13.6562 85.6691 13.6711 84.2879 13.7332C82.9097 13.7954 81.9686 14.0126 81.145 14.3294C80.2814 14.6518 79.499 15.1571 78.8526 15.8099C78.1938 16.4509 77.684 17.2267 77.3589 18.0831C77.0392 18.8984 76.8211 19.8311 76.7574 21.1971C76.6946 22.5661 76.6797 23.0034 76.6797 26.4876C76.6797 29.9718 76.6946 30.4091 76.7574 31.7781C76.8201 33.1441 77.0392 34.0768 77.3589 34.8921C77.6905 35.736 78.1326 36.4516 78.8526 37.1653C79.499 37.8181 80.2814 38.3234 81.145 38.6458C81.9686 38.9616 82.9097 39.1788 84.2879 39.242C85.6691 39.3041 86.1103 39.3189 89.6256 39.3189C93.1409 39.3189 93.5821 39.3041 94.9633 39.242C96.3416 39.1798 97.2826 38.9626 98.1052 38.6458C98.9692 38.3235 99.7519 37.8183 100.399 37.1653C101.057 36.5243 101.567 35.7485 101.892 34.8921C102.211 34.0768 102.43 33.1441 102.494 31.7781C102.557 30.4091 102.572 29.9718 102.572 26.4876C102.572 23.0034 102.557 22.5661 102.494 21.1971C102.431 19.8311 102.212 18.8984 101.891 18.0831C101.567 17.2268 101.057 16.451 100.399 15.8099C99.7519 15.1569 98.9692 14.6517 98.1052 14.3294C97.2826 14.0136 96.3416 13.7964 94.9633 13.7332C93.5821 13.6711 93.1409 13.6562 89.6256 13.6562ZM89.6256 15.9679C93.0822 15.9679 93.4915 15.9817 94.8568 16.0429C96.1185 16.1001 96.8046 16.3094 97.2607 16.4851C97.8652 16.718 98.2964 16.9954 98.7495 17.4445C99.2026 17.8936 99.4824 18.3209 99.7174 18.9201C99.8947 19.3721 100.106 20.0512 100.164 21.3027C100.225 22.655 100.239 23.0616 100.239 26.4876C100.239 29.9136 100.225 30.3192 100.164 31.6725C100.106 32.924 99.8947 33.6031 99.7174 34.0551C99.5101 34.6125 99.1793 35.1167 98.7495 35.5307C98.3318 35.9568 97.8231 36.2846 97.2607 36.4901C96.8046 36.6658 96.1185 36.8751 94.8568 36.9323C93.4925 36.9935 93.0822 37.0073 89.6256 37.0073C86.169 37.0073 85.7588 36.9935 84.3945 36.9323C83.1317 36.8751 82.4466 36.6658 81.9905 36.4901C81.4281 36.2846 80.9194 35.9568 80.5017 35.5307C80.0719 35.1167 79.7412 34.6125 79.5338 34.0551C79.3565 33.6031 79.1454 32.924 79.0876 31.6725C79.0259 30.3202 79.0119 29.9136 79.0119 26.4876C79.0119 23.0616 79.0259 22.656 79.0876 21.3027C79.1454 20.0512 79.3565 19.3721 79.5338 18.9201C79.7688 18.3209 80.0486 17.8936 80.5017 17.4445C80.9194 17.0184 81.4282 16.6906 81.9905 16.4851C82.4466 16.3094 83.1317 16.1001 84.3945 16.0429C85.7588 15.9817 86.169 15.9679 89.6256 15.9679" fill="white"/>
<path fill-rule="evenodd" clip-rule="evenodd" d="M89.6271 19.5782C87.7783 19.5782 86.0053 20.3061 84.698 21.6019C83.3907 22.8976 82.6562 24.655 82.6562 26.4874C82.6562 28.3198 83.3907 30.0772 84.698 31.3729C86.0053 32.6686 87.7783 33.3966 89.6271 33.3966C91.4759 33.3966 93.249 32.6686 94.5563 31.3729C95.8636 30.0772 96.598 28.3198 96.598 26.4874C96.598 24.655 95.8636 22.8976 94.5563 21.6019C93.249 20.3061 91.4759 19.5782 89.6271 19.5782ZM89.6271 30.929C88.4386 30.929 87.2988 30.4611 86.4584 29.6281C85.618 28.7951 85.1458 27.6654 85.1458 26.4874C85.1458 25.3094 85.618 24.1797 86.4584 23.3467C87.2988 22.5137 88.4386 22.0458 89.6271 22.0458C90.8156 22.0458 91.9555 22.5137 92.7959 23.3467C93.6363 24.1797 94.1084 25.3094 94.1084 26.4874C94.1084 27.6654 93.6363 28.7951 92.7959 29.6281C91.9555 30.4611 90.8156 30.929 89.6271 30.929ZM98.2909 19.6769C98.2909 19.8843 98.2497 20.0896 98.1697 20.2812C98.0896 20.4729 97.9722 20.6469 97.8243 20.7936C97.6763 20.9402 97.5006 21.0566 97.3073 21.1359C97.114 21.2153 96.9068 21.2561 96.6976 21.2561C96.4883 21.2561 96.2812 21.2153 96.0878 21.1359C95.8945 21.0566 95.7189 20.9402 95.5709 20.7936C95.423 20.6469 95.3056 20.4729 95.2255 20.2812C95.1455 20.0896 95.1042 19.8843 95.1042 19.6769C95.1042 19.2581 95.2721 18.8564 95.5709 18.5602C95.8697 18.264 96.275 18.0977 96.6976 18.0977C97.1202 18.0977 97.5254 18.264 97.8243 18.5602C98.1231 18.8564 98.2909 19.2581 98.2909 19.6769Z" fill="white"/>
<path d="M165.41 13.6562H143.302C142.207 13.6562 141.41 14.4459 141.41 15.5316V37.4436C141.41 38.4306 142.306 39.3189 143.302 39.3189H165.41C166.505 39.3189 167.302 38.5293 167.302 37.4436V15.5316C167.302 14.4459 166.406 13.6562 165.41 13.6562ZM149.377 35.3708H145.394V23.5265H149.377V35.3708ZM147.385 21.9473C146.091 21.9473 144.995 20.8615 144.995 19.5784C144.995 18.2953 146.091 17.2095 147.385 17.2095C148.68 17.2095 149.775 18.2953 149.775 19.5784C149.775 20.8615 148.68 21.9473 147.385 21.9473ZM163.319 35.3708H159.335V29.4487C159.335 27.8694 158.937 26.2902 157.344 26.2902C155.75 26.2902 155.352 27.8694 155.352 29.4487V35.3708H151.369V23.5265H155.352V24.9084H155.551C156.049 23.9213 157.344 23.1317 158.837 23.1317C162.522 23.1317 163.319 25.5006 163.319 28.4617V35.3708Z" fill="white"/>
</svg>
